STARTFONT 2.1
FONT -Bigelow & Holmes-Menu-Medium-R-Normal--16-120-100-100-P-92-ISO8859-1
SIZE 12 100 100
FONTBOUNDINGBOX 14 18 0 -4

STARTPROPERTIES 26
FONTNAME_REGISTRY ""
FAMILY_NAME "Menu"
FOUNDRY "Bigelow & Holmes"
WEIGHT_NAME "Medium"
SLANT "R"
SETWIDTH_NAME "Normal"
ADD_STYLE_NAME ""
PIXEL_SIZE 16
POINT_SIZE 120
RESOLUTION_X 100
RESOLUTION_Y 100
SPACING "P"
AVERAGE_WIDTH 92
CHARSET_REGISTRY "ISO8859"
CHARSET_ENCODING "1"
CHARSET_COLLECTIONS "ASCII ISO8859-1 ADOBE-STANDARD"
CAP_HEIGHT 11
X_HEIGHT 9
FULL_NAME "Pellucida Menu"
COPYRIGHT "Copyright (c) 1988 Bigelow & Holmes Inc., Portions Copyright 1988 Digital Equipment Corp."
NOTICE "Pellucida is a registered trademark of Bigelow & Holmes"
WEIGHT 10
QUAD_WIDTH 10
DEFAULT_CHAR 32
FONT_DESCENT 5
FONT_ASCENT 16
ENDPROPERTIES

CHARS 190

STARTCHAR space
ENCODING 32
SWIDTH 333 0
DWIDTH 5 0
BBX 1 1 0 0
BITMAP
00
ENDCHAR

STARTCHAR exclam
ENCODING 33
SWIDTH 300 0
DWIDTH 6 0
BBX 2 11 2 0
BITMAP
C0
C0
C0
C0
C0
C0
80
80
00
C0
C0
ENDCHAR

STARTCHAR quotedbl
ENCODING 34
SWIDTH 300 0
DWIDTH 6 0
BBX 4 4 1 8
BITMAP
90
90
90
90
ENDCHAR

STARTCHAR numbersign
ENCODING 35
SWIDTH 600 0
DWIDTH 10 0
BBX 8 11 1 0
BITMAP
12
12
12
FF
24
24
24
FF
48
48
48
ENDCHAR

STARTCHAR dollar
ENCODING 36
SWIDTH 600 0
DWIDTH 10 0
BBX 7 15 2 -2
BITMAP
08
08
7C
CA
C8
E8
78
3C
2E
26
26
A6
7C
20
20
ENDCHAR

STARTCHAR percent
ENCODING 37
SWIDTH 720 0
DWIDTH 12 0
BBX 10 11 1 0
BITMAP
7000
D800
8880
D900
7200
0C00
1380
26C0
4440
06C0
0380
ENDCHAR

STARTCHAR ampersand
ENCODING 38
SWIDTH 720 0
DWIDTH 12 0
BBX 10 11 1 0
BITMAP
3C00
6600
6600
6400
3800
38C0
5CC0
CE80
C700
E380
7CC0
ENDCHAR

STARTCHAR quoteright
ENCODING 39
SWIDTH 300 0
DWIDTH 5 0
BBX 2 4 2 8
BITMAP
C0
C0
40
80
ENDCHAR

STARTCHAR parenleft
ENCODING 40
SWIDTH 360 0
DWIDTH 6 0
BBX 4 14 1 -2
BITMAP
10
30
60
60
C0
C0
C0
C0
C0
C0
60
60
30
10
ENDCHAR

STARTCHAR parenright
ENCODING 41
SWIDTH 360 0
DWIDTH 6 0
BBX 4 14 1 -2
BITMAP
80
C0
60
60
30
30
30
30
30
30
60
60
C0
80
ENDCHAR

STARTCHAR asterisk
ENCODING 42
SWIDTH 480 0
DWIDTH 8 0
BBX 5 6 2 5
BITMAP
20
A8
F8
20
D8
88
ENDCHAR

STARTCHAR plus
ENCODING 43
SWIDTH 660 0
DWIDTH 10 0
BBX 9 9 1 1
BITMAP
0800
0800
0800
0800
FF80
0800
0800
0800
0800
ENDCHAR

STARTCHAR comma
ENCODING 44
SWIDTH 360 0
DWIDTH 6 0
BBX 2 4 2 -2
BITMAP
C0
C0
40
80
ENDCHAR

STARTCHAR minus
ENCODING 45
SWIDTH 660 0
DWIDTH 10 0
BBX 8 1 1 5
BITMAP
FF
ENDCHAR

STARTCHAR period
ENCODING 46
SWIDTH 360 0
DWIDTH 6 0
BBX 2 2 2 0
BITMAP
C0
C0
ENDCHAR

STARTCHAR slash
ENCODING 47
SWIDTH 540 0
DWIDTH 9 0
BBX 9 14 0 -2
BITMAP
0180
0180
0300
0300
0600
0C00
0C00
1800
1800
3000
6000
6000
C000
C000
ENDCHAR

STARTCHAR zero
ENCODING 48
SWIDTH 600 0
DWIDTH 10 0
BBX 7 11 2 0
BITMAP
38
6C
C6
C6
C6
C6
C6
C6
C6
6C
38
ENDCHAR

STARTCHAR one
ENCODING 49
SWIDTH 600 0
DWIDTH 10 0
BBX 4 11 3 0
BITMAP
30
F0
30
30
30
30
30
30
30
30
30
ENDCHAR

STARTCHAR two
ENCODING 50
SWIDTH 600 0
DWIDTH 10 0
BBX 7 11 2 0
BITMAP
7C
CE
06
06
06
0C
18
30
60
FE
FE
ENDCHAR

STARTCHAR three
ENCODING 51
SWIDTH 600 0
DWIDTH 10 0
BBX 7 11 2 0
BITMAP
7C
CE
06
06
0C
38
0C
06
06
CE
7C
ENDCHAR

STARTCHAR four
ENCODING 52
SWIDTH 600 0
DWIDTH 10 0
BBX 8 11 1 0
BITMAP
06
0E
16
26
46
86
FF
FF
06
06
06
ENDCHAR

STARTCHAR five
ENCODING 53
SWIDTH 600 0
DWIDTH 10 0
BBX 7 11 2 0
BITMAP
FC
FC
80
80
B8
FC
86
06
06
CE
7C
ENDCHAR

STARTCHAR six
ENCODING 54
SWIDTH 600 0
DWIDTH 10 0
BBX 7 11 2 0
BITMAP
3C
66
C0
C0
D8
EC
C6
C6
C6
6C
38
ENDCHAR

STARTCHAR seven
ENCODING 55
SWIDTH 600 0
DWIDTH 10 0
BBX 7 11 2 0
BITMAP
FE
FE
06
0C
08
18
30
30
60
60
60
ENDCHAR

STARTCHAR eight
ENCODING 56
SWIDTH 600 0
DWIDTH 10 0
BBX 7 11 2 0
BITMAP
7C
C6
C6
E4
78
38
5C
CE
C6
C6
7C
ENDCHAR

STARTCHAR nine
ENCODING 57
SWIDTH 600 0
DWIDTH 10 0
BBX 7 11 2 0
BITMAP
38
6C
C6
C6
C6
6E
36
06
06
CC
78
ENDCHAR

STARTCHAR colon
ENCODING 58
SWIDTH 360 0
DWIDTH 6 0
BBX 2 9 2 0
BITMAP
C0
C0
00
00
00
00
00
C0
C0
ENDCHAR

STARTCHAR semicolon
ENCODING 59
SWIDTH 360 0
DWIDTH 6 0
BBX 2 11 2 -2
BITMAP
C0
C0
00
00
00
00
00
C0
C0
40
80
ENDCHAR

STARTCHAR less
ENCODING 60
SWIDTH 660 0
DWIDTH 10 0
BBX 6 9 2 1
BITMAP
0C
18
30
60
C0
60
30
18
0C
ENDCHAR

STARTCHAR equal
ENCODING 61
SWIDTH 660 0
DWIDTH 10 0
BBX 8 3 1 4
BITMAP
FF
00
FF
ENDCHAR

STARTCHAR greater
ENCODING 62
SWIDTH 660 0
DWIDTH 10 0
BBX 6 9 2 1
BITMAP
C0
60
30
18
0C
18
30
60
C0
ENDCHAR

STARTCHAR question
ENCODING 63
SWIDTH 420 0
DWIDTH 8 0
BBX 7 11 0 0
BITMAP
7C
C6
06
06
0C
18
30
30
00
30
30
ENDCHAR

STARTCHAR at
ENCODING 64
SWIDTH 840 0
DWIDTH 14 0
BBX 12 11 1 0
BITMAP
1F80
6060
47A0
8990
9990
9990
9990
9BB0
4CE0
6000
1F00
ENDCHAR

STARTCHAR A
ENCODING 65
SWIDTH 720 0
DWIDTH 12 0
BBX 10 11 1 0
BITMAP
0C00
0C00
1E00
1600
3300
2300
6180
7F80
C0C0
C0C0
C0C0
ENDCHAR

STARTCHAR B
ENCODING 66
SWIDTH 600 0
DWIDTH 10 0
BBX 7 11 2 0
BITMAP
FC
C6
C6
C6
C4
F8
C4
C6
C6
C6
FC
ENDCHAR

STARTCHAR C
ENCODING 67
SWIDTH 600 0
DWIDTH 10 0
BBX 9 11 1 0
BITMAP
1F00
7180
6000
C000
C000
C000
C000
C000
6000
7180
1F00
ENDCHAR

STARTCHAR D
ENCODING 68
SWIDTH 720 0
DWIDTH 12 0
BBX 9 11 2 0
BITMAP
FC00
C700
C300
C180
C180
C180
C180
C180
C300
C700
FC00
ENDCHAR

STARTCHAR E
ENCODING 69
SWIDTH 540 0
DWIDTH 9 0
BBX 6 11 2 0
BITMAP
FC
C0
C0
C0
C0
F8
C0
C0
C0
C0
FC
ENDCHAR

STARTCHAR F
ENCODING 70
SWIDTH 540 0
DWIDTH 9 0
BBX 6 11 2 0
BITMAP
FC
C0
C0
C0
C0
F8
C0
C0
C0
C0
C0
ENDCHAR

STARTCHAR G
ENCODING 71
SWIDTH 660 0
DWIDTH 11 0
BBX 9 11 1 0
BITMAP
1F00
7180
6000
C000
C000
C000
C180
C180
6180
7180
1F80
ENDCHAR

STARTCHAR H
ENCODING 72
SWIDTH 780 0
DWIDTH 13 0
BBX 9 11 3 0
BITMAP
C180
C180
C180
C180
C180
FF80
C180
C180
C180
C180
C180
ENDCHAR

STARTCHAR I
ENCODING 73
SWIDTH 360 0
DWIDTH 6 0
BBX 2 11 3 0
BITMAP
C0
C0
C0
C0
C0
C0
C0
C0
C0
C0
C0
ENDCHAR

STARTCHAR J
ENCODING 74
SWIDTH 360 0
DWIDTH 6 0
BBX 5 13 0 -2
BITMAP
18
18
18
18
18
18
18
18
18
18
18
30
E0
ENDCHAR

STARTCHAR K
ENCODING 75
SWIDTH 600 0
DWIDTH 10 0
BBX 8 11 2 0
BITMAP
C6
C6
CC
D8
F0
F0
D8
CC
CE
C7
C3
ENDCHAR

STARTCHAR L
ENCODING 76
SWIDTH 480 0
DWIDTH 8 0
BBX 6 11 2 0
BITMAP
C0
C0
C0
C0
C0
C0
C0
C0
C0
C0
FC
ENDCHAR

STARTCHAR M
ENCODING 77
SWIDTH 900 0
DWIDTH 15 0
BBX 11 11 3 0
BITMAP
E0E0
E0E0
B160
B160
B160
9A60
9A60
9A60
8C60
8C60
8060
ENDCHAR

STARTCHAR N
ENCODING 78
SWIDTH 780 0
DWIDTH 13 0
BBX 9 11 3 0
BITMAP
C080
E080
F080
B080
9880
9C80
8C80
8680
8780
8380
8180
ENDCHAR

STARTCHAR O
ENCODING 79
SWIDTH 780 0
DWIDTH 13 0
BBX 11 11 1 0
BITMAP
1F00
71C0
60C0
C060
C060
C060
C060
C060
60C0
71C0
1F00
ENDCHAR

STARTCHAR P
ENCODING 80
SWIDTH 600 0
DWIDTH 10 0
BBX 7 11 3 0
BITMAP
FC
C6
C6
C6
C6
CC
F8
C0
C0
C0
C0
ENDCHAR

STARTCHAR Q
ENCODING 81
SWIDTH 780 0
DWIDTH 13 0
BBX 11 13 1 -2
BITMAP
1F00
71C0
60C0
C060
C060
C060
C060
C060
60C0
71C0
1F00
0180
00E0
ENDCHAR

STARTCHAR R
ENCODING 82
SWIDTH 600 0
DWIDTH 10 0
BBX 8 11 2 0
BITMAP
FC
C6
C6
C6
C4
F8
CC
CC
C6
C6
C3
ENDCHAR

STARTCHAR S
ENCODING 83
SWIDTH 540 0
DWIDTH 9 0
BBX 7 11 1 0
BITMAP
7C
E6
C0
C0
70
3C
0E
06
06
CE
7C
ENDCHAR

STARTCHAR T
ENCODING 84
SWIDTH 600 0
DWIDTH 10 0
BBX 10 11 0 0
BITMAP
FFC0
0C00
0C00
0C00
0C00
0C00
0C00
0C00
0C00
0C00
0C00
ENDCHAR

STARTCHAR U
ENCODING 85
SWIDTH 720 0
DWIDTH 12 0
BBX 8 11 3 0
BITMAP
C3
C3
C3
C3
C3
C3
C3
C3
C3
66
3C
ENDCHAR

STARTCHAR V
ENCODING 86
SWIDTH 660 0
DWIDTH 11 0
BBX 9 11 1 0
BITMAP
C180
C180
C180
6100
6300
6200
3600
3400
3C00
1800
1800
ENDCHAR

STARTCHAR W
ENCODING 87
SWIDTH 900 0
DWIDTH 15 0
BBX 13 11 1 0
BITMAP
C018
C018
C318
6310
6310
6730
35A0
35A0
18C0
18C0
18C0
ENDCHAR

STARTCHAR X
ENCODING 88
SWIDTH 600 0
DWIDTH 10 0
BBX 8 11 1 0
BITMAP
C3
C3
66
34
38
18
2C
66
46
C3
C3
ENDCHAR

STARTCHAR Y
ENCODING 89
SWIDTH 600 0
DWIDTH 10 0
BBX 8 11 1 0
BITMAP
C3
C3
62
66
34
3C
18
18
18
18
18
ENDCHAR

STARTCHAR Z
ENCODING 90
SWIDTH 600 0
DWIDTH 10 0
BBX 8 11 1 0
BITMAP
FF
03
07
0E
1C
38
70
E0
C0
C0
FF
ENDCHAR

STARTCHAR bracketleft
ENCODING 91
SWIDTH 360 0
DWIDTH 6 0
BBX 4 14 1 -2
BITMAP
F0
C0
C0
C0
C0
C0
C0
C0
C0
C0
C0
C0
C0
F0
ENDCHAR

STARTCHAR backslash
ENCODING 92
SWIDTH 540 0
DWIDTH 9 0
BBX 9 14 0 -2
BITMAP
C000
C000
6000
6000
3000
1800
1800
0C00
0C00
0600
0300
0300
0180
0180
ENDCHAR

STARTCHAR bracketright
ENCODING 93
SWIDTH 360 0
DWIDTH 6 0
BBX 4 14 1 -2
BITMAP
F0
30
30
30
30
30
30
30
30
30
30
30
30
F0
ENDCHAR

STARTCHAR asciicircum
ENCODING 94
SWIDTH 660 0
DWIDTH 10 0
BBX 7 8 2 3
BITMAP
10
38
28
6C
44
C6
82
82
ENDCHAR

STARTCHAR underscore
ENCODING 95
SWIDTH 660 0
DWIDTH 11 0
BBX 9 1 1 -1
BITMAP
FF80
ENDCHAR

STARTCHAR quoteleft
ENCODING 96
SWIDTH 300 0
DWIDTH 5 0
BBX 2 4 1 8
BITMAP
40
80
C0
C0
ENDCHAR

STARTCHAR a
ENCODING 97
SWIDTH 480 0
DWIDTH 8 0
BBX 7 9 1 0
BITMAP
78
CC
0C
0C
7C
CC
CC
CC
76
ENDCHAR

STARTCHAR b
ENCODING 98
SWIDTH 660 0
DWIDTH 11 0
BBX 8 12 2 0
BITMAP
C0
C0
C0
DC
E6
C3
C3
C3
C3
C3
C6
FC
ENDCHAR

STARTCHAR c
ENCODING 99
SWIDTH 480 0
DWIDTH 8 0
BBX 7 9 1 0
BITMAP
3C
66
C0
C0
C0
C0
C0
62
3C
ENDCHAR

STARTCHAR d
ENCODING 100
SWIDTH 600 0
DWIDTH 10 0
BBX 8 12 1 0
BITMAP
03
03
03
3F
63
C3
C3
C3
C3
C3
67
3B
ENDCHAR

STARTCHAR e
ENCODING 101
SWIDTH 540 0
DWIDTH 9 0
BBX 7 9 1 0
BITMAP
3C
66
C6
C6
FE
C0
C0
62
3C
ENDCHAR

STARTCHAR f
ENCODING 102
SWIDTH 360 0
DWIDTH 6 0
BBX 5 12 1 0
BITMAP
38
60
60
F8
60
60
60
60
60
60
60
60
ENDCHAR

STARTCHAR g
ENCODING 103
SWIDTH 600 0
DWIDTH 10 0
BBX 8 12 1 -3
BITMAP
3F
63
C3
C3
C3
C3
67
3B
03
03
C7
7E
ENDCHAR

STARTCHAR h
ENCODING 104
SWIDTH 660 0
DWIDTH 11 0
BBX 8 12 2 0
BITMAP
C0
C0
C0
CE
DF
E3
C3
C3
C3
C3
C3
C3
ENDCHAR

STARTCHAR i
ENCODING 105
SWIDTH 300 0
DWIDTH 5 0
BBX 2 12 2 0
BITMAP
C0
C0
00
C0
C0
C0
C0
C0
C0
C0
C0
C0
ENDCHAR

STARTCHAR j
ENCODING 106
SWIDTH 300 0
DWIDTH 5 0
BBX 4 15 0 -3
BITMAP
30
30
00
30
30
30
30
30
30
30
30
30
30
30
E0
ENDCHAR

STARTCHAR k
ENCODING 107
SWIDTH 600 0
DWIDTH 10 0
BBX 8 12 2 0
BITMAP
C0
C0
C0
C6
CC
D8
F0
F0
D8
CC
C6
C7
ENDCHAR

STARTCHAR l
ENCODING 108
SWIDTH 300 0
DWIDTH 5 0
BBX 2 12 2 0
BITMAP
C0
C0
C0
C0
C0
C0
C0
C0
C0
C0
C0
C0
ENDCHAR

STARTCHAR m
ENCODING 109
SWIDTH 900 0
DWIDTH 15 0
BBX 12 9 2 0
BITMAP
CC60
DEF0
E730
C630
C630
C630
C630
C630
C630
ENDCHAR

STARTCHAR n
ENCODING 110
SWIDTH 660 0
DWIDTH 11 0
BBX 8 9 2 0
BITMAP
CE
DF
E3
C3
C3
C3
C3
C3
C3
ENDCHAR

STARTCHAR o
ENCODING 111
SWIDTH 600 0
DWIDTH 10 0
BBX 8 9 1 0
BITMAP
3C
66
C3
C3
C3
C3
C3
66
3C
ENDCHAR

STARTCHAR p
ENCODING 112
SWIDTH 660 0
DWIDTH 11 0
BBX 8 12 2 -3
BITMAP
DC
E6
C3
C3
C3
C3
C3
C6
FC
C0
C0
C0
ENDCHAR

STARTCHAR q
ENCODING 113
SWIDTH 600 0
DWIDTH 10 0
BBX 8 12 1 -3
BITMAP
3F
63
C3
C3
C3
C3
C3
67
3B
03
03
03
ENDCHAR

STARTCHAR r
ENCODING 114
SWIDTH 420 0
DWIDTH 7 0
BBX 5 9 2 0
BITMAP
D8
D8
E0
C0
C0
C0
C0
C0
C0
ENDCHAR

STARTCHAR s
ENCODING 115
SWIDTH 480 0
DWIDTH 8 0
BBX 6 9 1 0
BITMAP
78
CC
C0
E0
78
1C
0C
CC
78
ENDCHAR

STARTCHAR t
ENCODING 116
SWIDTH 420 0
DWIDTH 7 0
BBX 5 11 1 0
BITMAP
60
60
F8
60
60
60
60
60
60
60
38
ENDCHAR

STARTCHAR u
ENCODING 117
SWIDTH 660 0
DWIDTH 11 0
BBX 8 9 2 0
BITMAP
C3
C3
C3
C3
C3
C3
C7
FB
73
ENDCHAR

STARTCHAR v
ENCODING 118
SWIDTH 600 0
DWIDTH 10 0
BBX 8 9 1 0
BITMAP
C3
C3
C3
62
66
34
34
18
18
ENDCHAR

STARTCHAR w
ENCODING 119
SWIDTH 840 0
DWIDTH 14 0
BBX 12 9 1 0
BITMAP
C030
C630
C630
C630
6960
6960
79E0
30C0
30C0
ENDCHAR

STARTCHAR x
ENCODING 120
SWIDTH 540 0
DWIDTH 9 0
BBX 7 9 1 0
BITMAP
C6
C6
64
38
10
38
4C
C6
C6
ENDCHAR

STARTCHAR y
ENCODING 121
SWIDTH 600 0
DWIDTH 10 0
BBX 8 12 1 -3
BITMAP
C3
C3
C3
62
66
34
34
18
18
10
30
30
ENDCHAR

STARTCHAR z
ENCODING 122
SWIDTH 480 0
DWIDTH 8 0
BBX 6 9 1 0
BITMAP
FC
0C
0C
18
30
60
C0
C0
FC
ENDCHAR

STARTCHAR braceleft
ENCODING 123
SWIDTH 360 0
DWIDTH 6 0
BBX 4 14 1 -2
BITMAP
30
40
C0
C0
40
20
C0
20
60
C0
C0
C0
40
30
ENDCHAR

STARTCHAR bar
ENCODING 124
SWIDTH 360 0
DWIDTH 6 0
BBX 2 14 2 -2
BITMAP
C0
C0
C0
C0
C0
C0
C0
C0
C0
C0
C0
C0
C0
C0
ENDCHAR

STARTCHAR braceright
ENCODING 125
SWIDTH 360 0
DWIDTH 6 0
BBX 4 14 1 -2
BITMAP
C0
20
30
30
20
40
30
40
20
30
30
30
20
C0
ENDCHAR

STARTCHAR asciitilde
ENCODING 126
SWIDTH 660 0
DWIDTH 10 0
BBX 8 3 1 4
BITMAP
71
99
8E
ENDCHAR

STARTCHAR exclamdown
ENCODING 161
SWIDTH 300 0
DWIDTH 6 0
BBX 2 12 2 -3
BITMAP
C0
C0
00
80
80
C0
C0
C0
C0
C0
C0
C0
ENDCHAR

STARTCHAR cent
ENCODING 162
SWIDTH 480 0
DWIDTH 10 0
BBX 7 11 2 0
BITMAP
08
08
3C
6A
C8
C8
C8
6A
3C
08
08
ENDCHAR

STARTCHAR sterling
ENCODING 163
SWIDTH 480 0
DWIDTH 10 0
BBX 8 11 1 0
BITMAP
0E
13
30
30
30
FC
30
20
20
7F
7F
ENDCHAR

STARTCHAR currency
ENCODING 164
SWIDTH 600 0
DWIDTH 10 0
BBX 9 9 1 1
BITMAP
8080
5D00
3600
6300
6300
6300
3600
5D00
8080
ENDCHAR

STARTCHAR yen
ENCODING 165
SWIDTH 600 0
DWIDTH 10 0
BBX 8 11 1 0
BITMAP
C3
C3
62
66
34
18
7E
18
7E
18
18
ENDCHAR

STARTCHAR brokenbar
ENCODING 166
SWIDTH 360 0
DWIDTH 6 0
BBX 2 14 2 -2
BITMAP
C0
C0
C0
C0
C0
C0
00
00
C0
C0
C0
C0
C0
C0
ENDCHAR

STARTCHAR section
ENCODING 167
SWIDTH 480 0
DWIDTH 8 0
BBX 6 12 1 -1
BITMAP
78
CC
C0
70
B8
8C
C4
74
38
0C
CC
78
ENDCHAR

STARTCHAR dieresis
ENCODING 168
SWIDTH 600 0
DWIDTH 10 0
BBX 6 2 2 10
BITMAP
CC
CC
ENDCHAR

STARTCHAR copyright
ENCODING 169
SWIDTH 840 0
DWIDTH 14 0
BBX 10 10 2 2
BITMAP
1E00
6180
4E80
9240
9040
9040
9040
4E80
6180
1E00
ENDCHAR

STARTCHAR ordfeminine
ENCODING 170
SWIDTH 480 0
DWIDTH 8 0
BBX 7 7 1 4
BITMAP
78
CC
0C
3C
CC
CC
76
ENDCHAR

STARTCHAR guillemotleft
ENCODING 171
SWIDTH 660 0
DWIDTH 10 0
BBX 8 5 1 3
BITMAP
11
66
CC
66
11
ENDCHAR

STARTCHAR logicalnot
ENCODING 172
SWIDTH 660 0
DWIDTH 10 0
BBX 8 4 1 2
BITMAP
FF
01
01
01
ENDCHAR

STARTCHAR hyphen
ENCODING 173
SWIDTH 540 0
DWIDTH 7 0
BBX 5 1 1 5
BITMAP
F8
ENDCHAR

STARTCHAR registered
ENCODING 174
SWIDTH 840 0
DWIDTH 14 0
BBX 10 10 2 2
BITMAP
1E00
6180
5C80
9240
9240
9C40
9240
5280
6180
1E00
ENDCHAR

STARTCHAR macron
ENCODING 175
SWIDTH 600 0
DWIDTH 10 0
BBX 4 1 3 10
BITMAP
F0
ENDCHAR

STARTCHAR degree
ENCODING 176
SWIDTH 720 0
DWIDTH 9 0
BBX 5 5 2 7
BITMAP
70
D8
88
D8
70
ENDCHAR

STARTCHAR plusminus
ENCODING 177
SWIDTH 660 0
DWIDTH 10 0
BBX 9 10 1 0
BITMAP
0800
0800
0800
0800
FF80
0800
0800
0800
0000
FF80
ENDCHAR

STARTCHAR twosuperior
ENCODING 178
SWIDTH 600 0
DWIDTH 8 0
BBX 6 7 1 5
BITMAP
78
CC
0C
18
60
C0
FC
ENDCHAR

STARTCHAR threesuperior
ENCODING 179
SWIDTH 600 0
DWIDTH 8 0
BBX 6 7 1 5
BITMAP
78
CC
0C
38
0C
CC
78
ENDCHAR

STARTCHAR acute
ENCODING 180
SWIDTH 600 0
DWIDTH 10 0
BBX 3 2 4 10
BITMAP
60
C0
ENDCHAR

STARTCHAR mu
ENCODING 181
SWIDTH 660 0
DWIDTH 11 0
BBX 8 12 2 -3
BITMAP
C3
C3
C3
C3
C3
C3
C7
FB
F3
C0
C0
C0
ENDCHAR

STARTCHAR paragraph
ENCODING 182
SWIDTH 600 0
DWIDTH 10 0
BBX 7 12 1 -1
BITMAP
7E
F2
F2
F2
F2
72
12
12
12
12
12
12
ENDCHAR

STARTCHAR periodcentered
ENCODING 183
SWIDTH 360 0
DWIDTH 10 0
BBX 3 3 4 4
BITMAP
E0
E0
E0
ENDCHAR

STARTCHAR cedilla
ENCODING 184
SWIDTH 600 0
DWIDTH 10 0
BBX 4 4 3 -4
BITMAP
40
60
30
E0
ENDCHAR

STARTCHAR onesuperior
ENCODING 185
SWIDTH 600 0
DWIDTH 10 0
BBX 3 7 3 5
BITMAP
60
E0
60
60
60
60
60
ENDCHAR

STARTCHAR ordmasculine
ENCODING 186
SWIDTH 600 0
DWIDTH 10 0
BBX 8 7 1 4
BITMAP
3C
66
C3
C3
C3
66
3C
ENDCHAR

STARTCHAR guillemotright
ENCODING 187
SWIDTH 660 0
DWIDTH 10 0
BBX 8 5 1 3
BITMAP
88
66
33
66
88
ENDCHAR

STARTCHAR onequarter
ENCODING 188
SWIDTH 600 0
DWIDTH 12 0
BBX 10 15 1 -3
BITMAP
3000
7000
3000
3040
3080
3100
3200
0400
0980
1380
2580
4980
8FC0
0180
0180
ENDCHAR

STARTCHAR onehalf
ENCODING 189
SWIDTH 600 0
DWIDTH 12 0
BBX 10 15 1 -3
BITMAP
3000
7000
3000
3080
3100
3200
3400
0800
1780
2CC0
40C0
8180
0700
0C00
0FC0
ENDCHAR

STARTCHAR threequarters
ENCODING 190
SWIDTH 600 0
DWIDTH 12 0
BBX 10 15 1 -3
BITMAP
7800
CC00
0C00
3840
0C80
CD00
7A00
0400
0980
1380
2580
4980
8FC0
0180
0180
ENDCHAR

STARTCHAR questiondown
ENCODING 191
SWIDTH 420 0
DWIDTH 8 0
BBX 7 12 1 -3
BITMAP
18
18
00
18
18
30
60
C0
C0
C0
C6
7C
ENDCHAR

STARTCHAR Agrave
ENCODING 192
SWIDTH 720 0
DWIDTH 12 0
BBX 10 14 1 0
BITMAP
1800
0C00
0000
0C00
0C00
1E00
1600
3300
2300
6180
7F80
C0C0
C0C0
C0C0
ENDCHAR

STARTCHAR Aacute
ENCODING 193
SWIDTH 720 0
DWIDTH 12 0
BBX 10 14 1 0
BITMAP
0600
0C00
0000
0C00
0C00
1E00
1600
3300
2300
6180
7F80
C0C0
C0C0
C0C0
ENDCHAR

STARTCHAR Acircumflex
ENCODING 194
SWIDTH 720 0
DWIDTH 12 0
BBX 10 14 1 0
BITMAP
1E00
3300
0000
0C00
0C00
1E00
1600
3300
2300
6180
7F80
C0C0
C0C0
C0C0
ENDCHAR

STARTCHAR Atilde
ENCODING 195
SWIDTH 720 0
DWIDTH 12 0
BBX 10 14 1 0
BITMAP
3900
4E00
0000
0C00
0C00
1E00
1600
3300
2300
6180
7F80
C0C0
C0C0
C0C0
ENDCHAR

STARTCHAR Adieresis
ENCODING 196
SWIDTH 720 0
DWIDTH 12 0
BBX 10 14 1 0
BITMAP
3300
3300
0000
0C00
0C00
1E00
1600
3300
2300
6180
7F80
C0C0
C0C0
C0C0
ENDCHAR

STARTCHAR Aring
ENCODING 197
SWIDTH 720 0
DWIDTH 12 0
BBX 10 14 1 0
BITMAP
0C00
1200
1200
0C00
0C00
1E00
1600
3300
2300
6180
7F80
C0C0
C0C0
C0C0
ENDCHAR

STARTCHAR AE
ENCODING 198
SWIDTH 840 0
DWIDTH 14 0
BBX 12 11 1 0
BITMAP
0FF0
0B00
1B00
1300
3300
23E0
7F00
6300
6300
C300
C3F0
ENDCHAR

STARTCHAR Ccedilla
ENCODING 199
SWIDTH 600 0
DWIDTH 10 0
BBX 9 15 1 -4
BITMAP
1F00
7180
6000
C000
C000
C000
C000
C000
6000
7180
1F00
0800
0C00
0600
1C00
ENDCHAR

STARTCHAR Egrave
ENCODING 200
SWIDTH 540 0
DWIDTH 9 0
BBX 6 14 2 0
BITMAP
60
30
00
FC
C0
C0
C0
C0
F8
C0
C0
C0
C0
FC
ENDCHAR

STARTCHAR Eacute
ENCODING 201
SWIDTH 540 0
DWIDTH 9 0
BBX 6 14 2 0
BITMAP
18
30
00
FC
C0
C0
C0
C0
F8
C0
C0
C0
C0
FC
ENDCHAR

STARTCHAR Ecircumflex
ENCODING 202
SWIDTH 540 0
DWIDTH 9 0
BBX 6 14 2 0
BITMAP
78
CC
00
FC
C0
C0
C0
C0
F8
C0
C0
C0
C0
FC
ENDCHAR

STARTCHAR Edieresis
ENCODING 203
SWIDTH 540 0
DWIDTH 9 0
BBX 6 14 2 0
BITMAP
CC
CC
00
FC
C0
C0
C0
C0
F8
C0
C0
C0
C0
FC
ENDCHAR

STARTCHAR Igrave
ENCODING 204
SWIDTH 360 0
DWIDTH 6 0
BBX 3 14 1 0
BITMAP
C0
60
00
60
60
60
60
60
60
60
60
60
60
60
ENDCHAR

STARTCHAR Iacute
ENCODING 205
SWIDTH 360 0
DWIDTH 6 0
BBX 3 14 2 0
BITMAP
60
C0
00
C0
C0
C0
C0
C0
C0
C0
C0
C0
C0
C0
ENDCHAR

STARTCHAR Icircumflex
ENCODING 206
SWIDTH 360 0
DWIDTH 6 0
BBX 6 14 0 0
BITMAP
78
CC
00
30
30
30
30
30
30
30
30
30
30
30
ENDCHAR

STARTCHAR Idieresis
ENCODING 207
SWIDTH 360 0
DWIDTH 6 0
BBX 6 14 0 0
BITMAP
CC
CC
00
30
30
30
30
30
30
30
30
30
30
30
ENDCHAR

STARTCHAR Eth
ENCODING 208
SWIDTH 720 0
DWIDTH 12 0
BBX 11 11 0 0
BITMAP
3F00
31C0
30C0
3060
3060
FC60
3060
3060
30C0
31C0
3F00
ENDCHAR

STARTCHAR Ntilde
ENCODING 209
SWIDTH 780 0
DWIDTH 13 0
BBX 9 14 2 0
BITMAP
3900
4E00
0000
C080
E080
F080
B080
9880
9C80
8C80
8680
8780
8380
8180
ENDCHAR

STARTCHAR Ograve
ENCODING 210
SWIDTH 780 0
DWIDTH 13 0
BBX 11 14 1 0
BITMAP
1800
0C00
0000
1F00
71C0
60C0
C060
C060
C060
C060
C060
60C0
71C0
1F00
ENDCHAR

STARTCHAR Oacute
ENCODING 211
SWIDTH 780 0
DWIDTH 13 0
BBX 11 14 1 0
BITMAP
0300
0600
0000
1F00
71C0
60C0
C060
C060
C060
C060
C060
60C0
71C0
1F00
ENDCHAR

STARTCHAR Ocircumflex
ENCODING 212
SWIDTH 780 0
DWIDTH 13 0
BBX 11 14 1 0
BITMAP
0F00
1980
0000
1F00
71C0
60C0
C060
C060
C060
C060
C060
60C0
71C0
1F00
ENDCHAR

STARTCHAR Otilde
ENCODING 213
SWIDTH 780 0
DWIDTH 13 0
BBX 11 14 1 0
BITMAP
1C80
2700
0000
1F00
71C0
60C0
C060
C060
C060
C060
C060
60C0
71C0
1F00
ENDCHAR

STARTCHAR Odieresis
ENCODING 214
SWIDTH 780 0
DWIDTH 13 0
BBX 11 14 1 0
BITMAP
3180
3180
0000
1F00
71C0
60C0
C060
C060
C060
C060
C060
60C0
71C0
1F00
ENDCHAR

STARTCHAR multiply
ENCODING 215
SWIDTH 660 0
DWIDTH 10 0
BBX 8 8 2 2
BITMAP
81
42
24
18
18
24
42
81
ENDCHAR

STARTCHAR Oslash
ENCODING 216
SWIDTH 780 0
DWIDTH 13 0
BBX 11 11 1 0
BITMAP
1F20
71C0
60C0
C160
C260
C460
C860
D060
60C0
71C0
9F00
ENDCHAR

STARTCHAR Ugrave
ENCODING 217
SWIDTH 720 0
DWIDTH 12 0
BBX 8 14 2 0
BITMAP
30
18
00
C3
C3
C3
C3
C3
C3
C3
C3
C3
66
3C
ENDCHAR

STARTCHAR Uacute
ENCODING 218
SWIDTH 720 0
DWIDTH 12 0
BBX 8 14 2 0
BITMAP
0C
18
00
C3
C3
C3
C3
C3
C3
C3
C3
C3
66
3C
ENDCHAR

STARTCHAR Ucircumflex
ENCODING 219
SWIDTH 720 0
DWIDTH 12 0
BBX 8 14 2 0
BITMAP
3C
66
00
C3
C3
C3
C3
C3
C3
C3
C3
C3
66
3C
ENDCHAR

STARTCHAR Udieresis
ENCODING 220
SWIDTH 720 0
DWIDTH 12 0
BBX 8 14 2 0
BITMAP
66
66
00
C3
C3
C3
C3
C3
C3
C3
C3
C3
66
3C
ENDCHAR

STARTCHAR Yacute
ENCODING 221
SWIDTH 600 0
DWIDTH 10 0
BBX 8 14 1 0
BITMAP
0C
18
00
C3
C3
62
66
34
3C
18
18
18
18
18
ENDCHAR

STARTCHAR Thorn
ENCODING 222
SWIDTH 600 0
DWIDTH 10 0
BBX 7 11 2 0
BITMAP
C0
C0
FC
C6
C6
C6
C6
CC
F8
C0
C0
ENDCHAR

STARTCHAR germandbls
ENCODING 223
SWIDTH 600 0
DWIDTH 10 0
BBX 7 12 2 0
BITMAP
78
CC
CC
CC
D8
CC
CC
C6
C6
C6
C6
DC
ENDCHAR

STARTCHAR agrave
ENCODING 224
SWIDTH 480 0
DWIDTH 8 0
BBX 7 12 1 0
BITMAP
60
30
00
78
CC
0C
0C
7C
CC
CC
CC
76
ENDCHAR

STARTCHAR aacute
ENCODING 225
SWIDTH 480 0
DWIDTH 8 0
BBX 7 12 1 0
BITMAP
18
30
00
78
CC
0C
0C
7C
CC
CC
CC
76
ENDCHAR

STARTCHAR acircumflex
ENCODING 226
SWIDTH 480 0
DWIDTH 8 0
BBX 7 12 1 0
BITMAP
78
CC
00
78
CC
0C
0C
7C
CC
CC
CC
76
ENDCHAR

STARTCHAR atilde
ENCODING 227
SWIDTH 480 0
DWIDTH 8 0
BBX 7 12 1 0
BITMAP
34
58
00
78
CC
0C
0C
7C
CC
CC
CC
76
ENDCHAR

STARTCHAR adieresis
ENCODING 228
SWIDTH 480 0
DWIDTH 8 0
BBX 7 12 1 0
BITMAP
CC
CC
00
78
CC
0C
0C
7C
CC
CC
CC
76
ENDCHAR

STARTCHAR aring
ENCODING 229
SWIDTH 480 0
DWIDTH 8 0
BBX 7 13 1 0
BITMAP
30
48
30
00
78
CC
0C
0C
7C
CC
CC
CC
76
ENDCHAR

STARTCHAR ae
ENCODING 230
SWIDTH 780 0
DWIDTH 13 0
BBX 11 9 1 0
BITMAP
7BC0
CE60
0C60
0C60
7FE0
CC00
CC00
CE20
73C0
ENDCHAR

STARTCHAR ccedilla
ENCODING 231
SWIDTH 480 0
DWIDTH 8 0
BBX 7 12 1 -3
BITMAP
3C
66
C0
C0
C0
C0
C0
62
3C
10
08
30
ENDCHAR

STARTCHAR egrave
ENCODING 232
SWIDTH 540 0
DWIDTH 9 0
BBX 7 12 1 0
BITMAP
30
18
00
3C
66
C6
C6
FE
C0
C0
62
3C
ENDCHAR

STARTCHAR eacute
ENCODING 233
SWIDTH 540 0
DWIDTH 9 0
BBX 7 12 1 0
BITMAP
0C
18
00
3C
66
C6
C6
FE
C0
C0
62
3C
ENDCHAR

STARTCHAR ecircumflex
ENCODING 234
SWIDTH 540 0
DWIDTH 9 0
BBX 7 12 1 0
BITMAP
3C
66
00
3C
66
C6
C6
FE
C0
C0
62
3C
ENDCHAR

STARTCHAR edieresis
ENCODING 235
SWIDTH 540 0
DWIDTH 9 0
BBX 7 12 1 0
BITMAP
66
66
00
3C
66
C6
C6
FE
C0
C0
62
3C
ENDCHAR

STARTCHAR igrave
ENCODING 236
SWIDTH 300 0
DWIDTH 5 0
BBX 3 12 2 0
BITMAP
60
C0
00
C0
C0
C0
C0
C0
C0
C0
C0
C0
ENDCHAR

STARTCHAR iacute
ENCODING 237
SWIDTH 300 0
DWIDTH 5 0
BBX 3 12 1 0
BITMAP
C0
60
00
60
60
60
60
60
60
60
60
60
ENDCHAR

STARTCHAR icircumflex
ENCODING 238
SWIDTH 300 0
DWIDTH 5 0
BBX 4 12 1 0
BITMAP
60
90
00
60
60
60
60
60
60
60
60
60
ENDCHAR

STARTCHAR idieresis
ENCODING 239
SWIDTH 300 0
DWIDTH 5 0
BBX 4 12 1 0
BITMAP
90
90
00
60
60
60
60
60
60
60
60
60
ENDCHAR

STARTCHAR eth
ENCODING 240
SWIDTH 600 0
DWIDTH 10 0
BBX 8 12 1 0
BITMAP
34
18
6C
06
3E
67
C3
C3
C3
C3
66
3C
ENDCHAR

STARTCHAR ntilde
ENCODING 241
SWIDTH 660 0
DWIDTH 11 0
BBX 8 12 2 0
BITMAP
1A
2C
00
CE
DF
E3
C3
C3
C3
C3
C3
C3
ENDCHAR

STARTCHAR ograve
ENCODING 242
SWIDTH 600 0
DWIDTH 10 0
BBX 8 12 1 0
BITMAP
30
18
00
3C
66
C3
C3
C3
C3
C3
66
3C
ENDCHAR

STARTCHAR oacute
ENCODING 243
SWIDTH 600 0
DWIDTH 10 0
BBX 8 12 1 0
BITMAP
0C
18
00
3C
66
C3
C3
C3
C3
C3
66
3C
ENDCHAR

STARTCHAR ocircumflex
ENCODING 244
SWIDTH 600 0
DWIDTH 10 0
BBX 8 12 1 0
BITMAP
3C
66
00
3C
66
C3
C3
C3
C3
C3
66
3C
ENDCHAR

STARTCHAR otilde
ENCODING 245
SWIDTH 600 0
DWIDTH 10 0
BBX 8 12 1 0
BITMAP
1A
2C
00
3C
66
C3
C3
C3
C3
C3
66
3C
ENDCHAR

STARTCHAR odieresis
ENCODING 246
SWIDTH 600 0
DWIDTH 10 0
BBX 8 12 1 0
BITMAP
66
66
00
3C
66
C3
C3
C3
C3
C3
66
3C
ENDCHAR

STARTCHAR divide
ENCODING 247
SWIDTH 660 0
DWIDTH 10 0
BBX 9 7 1 2
BITMAP
0800
0800
0000
FF80
0000
0800
0800
ENDCHAR

STARTCHAR oslash
ENCODING 248
SWIDTH 600 0
DWIDTH 10 0
BBX 8 9 1 0
BITMAP
3D
66
C7
CB
DB
D3
E3
66
BC
ENDCHAR

STARTCHAR ugrave
ENCODING 249
SWIDTH 660 0
DWIDTH 11 0
BBX 8 12 2 0
BITMAP
30
18
00
C3
C3
C3
C3
C3
C3
C7
FB
73
ENDCHAR

STARTCHAR uacute
ENCODING 250
SWIDTH 660 0
DWIDTH 11 0
BBX 8 12 2 0
BITMAP
0C
18
00
C3
C3
C3
C3
C3
C3
C7
FB
73
ENDCHAR

STARTCHAR ucircumflex
ENCODING 251
SWIDTH 660 0
DWIDTH 11 0
BBX 8 12 2 0
BITMAP
3C
66
00
C3
C3
C3
C3
C3
C3
C7
FB
73
ENDCHAR

STARTCHAR udieresis
ENCODING 252
SWIDTH 660 0
DWIDTH 11 0
BBX 8 12 2 0
BITMAP
66
66
00
C3
C3
C3
C3
C3
C3
C7
FB
73
ENDCHAR

STARTCHAR yacute
ENCODING 253
SWIDTH 600 0
DWIDTH 10 0
BBX 8 15 1 -3
BITMAP
0C
18
00
C3
C3
C3
62
66
34
34
18
18
10
30
30
ENDCHAR

STARTCHAR thorn
ENCODING 254
SWIDTH 660 0
DWIDTH 11 0
BBX 8 15 2 -3
BITMAP
C0
C0
C0
DC
E6
C3
C3
C3
C3
C3
C6
FC
C0
C0
C0
ENDCHAR

STARTCHAR ydieresis
ENCODING 255
SWIDTH 600 0
DWIDTH 10 0
BBX 8 15 1 -3
BITMAP
66
66
00
C3
C3
C3
62
66
34
34
18
18
10
30
30
ENDCHAR
ENDFONT
